<svg width="145" height="38" viewBox="0 0 145 38" fill="none" xmlns="http://www.w3.org/2000/svg">
<path d="M4.06 28.792V11.032C4.06 8.696 5.276 7.96 7.132 7.96H18.684C20.22 7.96 21.34 8.408 21.34 10.072C21.34 11.736 20.22 12.184 18.684 12.184H9.308V17.56H17.244C18.62 17.56 19.708 17.944 19.708 19.576C19.708 21.208 18.62 21.592 17.244 21.592H9.308V28.792C9.308 30.36 8.284 31.416 6.684 31.416C5.084 31.416 4.06 30.36 4.06 28.792ZM26.2928 22.616C26.2928 25.464 27.4768 27.96 30.2608 27.96C33.0448 27.96 34.2288 25.464 34.2288 22.616C34.2288 19.576 32.9808 17.304 30.2608 17.304C27.5408 17.304 26.2928 19.576 26.2928 22.616ZM21.6208 22.616C21.6208 17.688 24.6288 13.848 30.2608 13.848C35.8928 13.848 38.9008 17.688 38.9008 22.616C38.9008 27.288 36.6287 31.416 30.2608 31.416C23.8928 31.416 21.6208 27.288 21.6208 22.616ZM42.1745 29.08V16.024C42.1745 14.616 43.1025 13.848 44.2865 13.848C45.4705 13.848 46.3985 14.616 46.3985 16.024V17.816H46.4625C47.0065 15.864 48.0625 13.848 50.3345 13.848C51.8065 13.848 52.8945 14.808 52.8945 16.12C52.8945 17.848 51.7425 18.456 50.5905 18.456H49.7585C47.8705 18.456 46.8465 19.768 46.8465 23.64V29.08C46.8465 30.328 46.3345 31.416 44.5105 31.416C42.6865 31.416 42.1745 30.328 42.1745 29.08ZM54.9498 29.08V16.184C54.9498 14.776 55.7818 13.848 57.1578 13.848C58.5338 13.848 59.3658 14.776 59.3658 16.184V16.792H59.4298C60.6458 14.936 62.6938 13.848 65.0618 13.848C66.6618 13.848 68.6778 14.584 69.5417 16.792C70.8538 14.968 72.5178 13.848 75.0458 13.848C78.2778 13.848 80.8698 15.32 80.8698 19.512V29.08C80.8698 30.328 80.3578 31.416 78.5338 31.416C76.7098 31.416 76.1978 30.328 76.1978 29.08V20.696C76.1978 19.032 75.4618 17.688 73.6378 17.688C71.8458 17.688 70.2458 19.128 70.2458 21.304V29.08C70.2458 30.328 69.7338 31.416 67.9098 31.416C66.0858 31.416 65.5738 30.328 65.5738 29.08V20.696C65.5738 19.032 64.8378 17.688 63.0138 17.688C61.2218 17.688 59.6218 19.128 59.6218 21.304V29.08C59.6218 30.328 59.1098 31.416 57.2858 31.416C55.4618 31.416 54.9498 30.328 54.9498 29.08ZM85.1508 27.928V11.032C85.1508 8.696 86.3668 7.96 88.2228 7.96H94.6228C100.351 7.96 105.599 10.456 105.599 19.48C105.599 26.776 101.535 31 94.5268 31H88.2228C86.3668 31 85.1508 30.264 85.1508 27.928ZM90.3988 12.184V26.776H94.8148C99.0068 26.776 100.351 23.032 100.351 19.48C100.351 14.936 98.6228 12.184 94.7828 12.184H90.3988ZM123.384 23.512H112.824C112.824 25.976 114.424 27.768 117.144 27.768C120.664 27.768 120.664 25.464 122.552 25.464C123.672 25.464 124.472 26.424 124.472 27.288C124.472 30.104 119.96 31.416 117.144 31.416C110.616 31.416 108.152 27 108.152 22.936C108.152 17.496 111.448 13.848 116.984 13.848C122.36 13.848 125.432 17.656 125.432 21.496C125.432 23.096 124.952 23.512 123.384 23.512ZM112.824 20.824H121.016C120.76 18.68 119.16 17.112 117.08 17.112C114.744 17.112 113.336 18.552 112.824 20.824ZM131.522 29.752L127.106 17.464C126.978 17.08 126.818 16.568 126.818 16.28C126.818 14.616 127.97 13.848 129.09 13.848C130.85 13.848 131.298 15.32 131.426 15.8L134.562 26.36H134.626L137.762 15.8C137.89 15.32 138.338 13.848 140.098 13.848C141.218 13.848 142.37 14.616 142.37 16.28C142.37 16.568 142.21 17.08 142.082 17.464L137.666 29.752C137.218 31 136.93 31.416 134.594 31.416C132.258 31.416 131.97 31 131.522 29.752Z" fill="#09090B"/>
</svg>
